HIERARCHY
ROOT Hips
{
	OFFSET 0.000000 0.000000 0.000000
	CHANNELS 6 Xposition Yposition Zposition Zrotation Yrotation Xrotation 
	JOINT LHipJoint
	{
		OFFSET 0.000000 0.000000 0.000000
		CHANNELS 3 Zrotation Yrotation Xrotation
		JOINT LeftUpLeg
		{
			OFFSET 1.363060 -1.794630 0.839290
			CHANNELS 3 Zrotation Yrotation Xrotation
			JOINT LeftLeg
			{
				OFFSET 2.448110 -6.726130 0.000000
				CHANNELS 3 Zrotation Yrotation Xrotation
				JOINT LeftFoot
				{
					OFFSET 2.562200 -7.039590 0.000000
					CHANNELS 3 Zrotation Yrotation Xrotation
					JOINT LeftToeBase
					{
						OFFSET 0.157640 -0.433110 2.322550
						CHANNELS 3 Zrotation Yrotation Xrotation
						End Site
						{
							OFFSET 0.000000 0.000000 0.000000
						}
					}
				}
			}
		}
	}
	JOINT RHipJoint
	{
		OFFSET 0.000000 0.000000 0.000000
		CHANNELS 3 Zrotation Yrotation Xrotation
		JOINT RightUpLeg
		{
			OFFSET -1.305520 -1.794630 0.839290
			CHANNELS 3 Zrotation Yrotation Xrotation
			JOINT RightLeg
			{
				OFFSET -2.542530 -6.985550 0.000000
				CHANNELS 3 Zrotation Yrotation Xrotation
				JOINT RightFoot
				{
					OFFSET -2.568260 -7.056230 0.000000
					CHANNELS 3 Zrotation Yrotation Xrotation
					JOINT RightToeBase
					{
						OFFSET -0.164730 -0.452590 2.363150
						CHANNELS 3 Zrotation Yrotation Xrotation
						End Site
						{
							OFFSET 0.000000 0.000000 0.000000
						}
					}
				}
			}
		}
	}
	JOINT LowerBack
	{
		OFFSET 0.000000 0.000000 0.000000
		CHANNELS 3 Zrotation Yrotation Xrotation
		JOINT Spine
		{
			OFFSET 0.028270 2.035590 -0.193380
			CHANNELS 3 Zrotation Yrotation Xrotation
			JOINT Spine1
			{
				OFFSET 0.056720 2.048850 -0.042750
				CHANNELS 3 Zrotation Yrotation Xrotation
				JOINT Neck
				{
					OFFSET 0.000000 0.000000 0.000000
					CHANNELS 3 Zrotation Yrotation Xrotation
					JOINT Neck1
					{
						OFFSET -0.054170 1.746240 0.172020
						CHANNELS 3 Zrotation Yrotation Xrotation
						JOINT Head
						{
							OFFSET 0.104070 1.761360 -0.123970
							CHANNELS 3 Zrotation Yrotation Xrotation
							End Site
							{
								OFFSET 0.000000 0.000000 0.000000
							}
						}
					}
				}
				JOINT LeftShoulder
				{
					OFFSET 0.000000 0.000000 0.000000
					CHANNELS 3 Zrotation Yrotation Xrotation
					JOINT LeftArm
					{
						OFFSET 3.362410 1.200890 -0.311210
						CHANNELS 3 Zrotation Yrotation Xrotation
						JOINT LeftForeArm
						{
							OFFSET 4.983000 -0.000000 -0.000000
							CHANNELS 3 Zrotation Yrotation Xrotation
							JOINT LeftHand
							{
								OFFSET 3.483560 -0.000000 -0.000000
								CHANNELS 3 Zrotation Yrotation Xrotation
								JOINT LeftFingerBase
								{
									OFFSET 0.000000 0.000000 0.000000
									CHANNELS 3 Zrotation Yrotation Xrotation
									JOINT LeftHandIndex1
									{
										OFFSET 0.715260 -0.000000 -0.000000
										CHANNELS 3 Zrotation Yrotation Xrotation
										End Site
										{
											OFFSET 0.000000 0.000000 0.000000
										}
									}
								}
								JOINT LThumb
								{
									OFFSET 0.000000 0.000000 0.000000
									CHANNELS 3 Zrotation Yrotation Xrotation
									End Site
									{
										OFFSET 0.000000 0.000000 0.000000
									}
								}
							}
						}
					}
				}
				JOINT RightShoulder
				{
					OFFSET 0.000000 0.000000 0.000000
					CHANNELS 3 Zrotation Yrotation Xrotation
					JOINT RightArm
					{
						OFFSET -3.136600 1.374050 -0.404650
						CHANNELS 3 Zrotation Yrotation Xrotation
						JOINT RightForeArm
						{
							OFFSET -5.241900 -0.000000 -0.000000
							CHANNELS 3 Zrotation Yrotation Xrotation
							JOINT RightHand
							{
								OFFSET -3.444170 -0.000000 -0.000000
								CHANNELS 3 Zrotation Yrotation Xrotation
								JOINT RightFingerBase
								{
									OFFSET 0.000000 0.000000 0.000000
									CHANNELS 3 Zrotation Yrotation Xrotation
									JOINT RightHandIndex1
									{
										OFFSET -0.622530 -0.000000 -0.000000
										CHANNELS 3 Zrotation Yrotation Xrotation
										End Site
										{
											OFFSET 0.000000 0.000000 0.000000
										}
									}
								}
								JOINT RThumb
								{
									OFFSET 0.000000 0.000000 0.000000
									CHANNELS 3 Zrotation Yrotation Xrotation
									End Site
									{
										OFFSET 0.000000 0.000000 0.000000
									}
								}
							}
						}
					}
				}
			}
		}
	}
}
MOTION
Frames: 9
Frame Time: 0.033333
1.241677 22.692954 -13.113045 4.420687 -1.056451 15.673007 -13.554265 4.734359 5.438984 -7.255750 1.564065 -18.887839 -0.715780 0.620836 25.391913 1.198860 10.377101 36.491681 2.506037 0.125513 -55.988479 10.107822 -2.694508 7.698888 -2.947889 10.962685 -41.906088 -0.617567 -0.769890 26.028574 -1.529105 -10.222339 17.757533 -0.951316 0.017941 -55.938098 -0.601291 -1.327549 -10.536490 -0.922711 -1.802229 -4.054110 -6.609830 0.477818 1.842320 7.720781 -9.616144 -3.280738 -2.401452 -0.342280 1.207177 -0.064553 -0.008109 0.072066 9.166135 -1.661607 2.619683 -65.359967 -62.913169 -3.627091 -98.760043 -87.633267 98.669345 23.443269 -12.308451 -2.697260 -0.219294 0.866770 0.072096 -0.032794 -0.035052 0.045517 -0.088687 0.044231 -0.027031 4.865375 -28.931974 4.889805 49.387628 41.342049 -28.557157 -157.944727 84.320454 -156.214408 -19.956488 16.373576 -3.086953 0.220466 -0.734405 -0.077808 0.030364 0.009570 -0.047727 0.030962 -0.008665 -0.047101 
1.209512 23.183351 -12.532044 4.027008 -1.719656 15.143344 -11.330755 5.703066 4.144983 -9.823290 0.386334 -19.424455 2.126572 -0.501538 32.535311 1.274587 7.335816 22.836948 2.736633 0.148746 -55.423688 9.692240 -3.525625 8.485886 -2.012460 11.659860 -43.537937 -2.138401 -3.013878 28.531007 -2.393732 -7.934067 3.391193 -1.409525 0.050471 -53.842357 1.245252 -4.372214 -10.401921 -1.645056 -1.402420 -4.123845 -6.813109 1.522033 2.040266 8.179994 -10.362973 -3.132353 -2.114231 -0.327849 1.187303 -0.063419 -0.017887 0.083797 11.319837 1.140423 3.429151 -61.566532 -66.550717 -12.754207 -161.042983 -84.761074 161.248482 24.552195 -13.266149 -3.049770 -0.318232 0.872649 0.081554 -0.020628 -0.027983 0.045424 -0.089076 0.063542 -0.015404 4.022787 -28.101007 5.984129 49.654783 42.154873 -30.561533 -166.696496 77.629044 -164.603426 -21.940245 17.506487 -3.652947 0.239600 -0.744234 -0.075339 0.007549 0.020519 -0.042392 0.011926 -0.006105 -0.050497 
1.176639 23.514567 -11.980100 3.929751 -1.135269 15.036446 -11.094936 5.756883 3.547261 -10.317272 -0.770661 -20.604352 3.637310 -4.749841 37.218230 1.762894 6.012115 14.694376 2.761231 0.148745 -55.428017 9.632494 -3.949579 8.605055 -1.724272 12.801328 -44.847034 -3.294135 -4.427441 31.067641 -2.057311 -7.716618 1.485242 -1.400066 0.051044 -52.424192 2.563492 -6.449726 -10.068479 -2.170201 -1.138450 -4.107728 -6.844163 1.673953 1.242915 8.804096 -10.473549 -3.499736 -2.111047 -0.330913 1.086382 -0.055839 -0.023000 0.089587 11.731042 3.418904 3.653689 -50.085399 -69.193931 -26.494506 -167.618096 -84.549084 167.350151 25.689005 -13.681977 -3.305861 -0.315266 0.936603 0.083807 -0.017435 -0.034311 0.035727 -0.086776 0.085251 -0.002134 4.204746 -28.399714 7.198121 49.140003 42.757542 -32.798901 -170.531569 74.037153 -168.322966 -22.794123 18.227390 -3.968173 0.282459 -0.772781 -0.077161 -0.007880 0.031070 -0.038303 -0.006773 0.002324 -0.055257 
1.142467 23.667691 -11.434703 2.267144 -1.179377 14.687862 -10.360500 5.855731 3.205345 -9.263773 -0.966783 -20.099572 2.992567 -11.503327 37.627976 1.756100 6.496073 17.248565 2.920163 0.193001 -56.138525 10.747830 -3.639830 9.105832 -0.618111 14.462027 -44.393145 -4.685885 -4.812305 31.887557 -1.755267 -7.178401 0.846466 -1.166528 0.001287 -51.977292 4.478772 -6.048702 -9.981224 -1.556297 -0.800319 -4.250445 -7.040431 0.975974 1.183534 9.131619 -10.794236 -4.342478 -1.877130 -0.321147 0.916972 -0.054527 -0.022674 0.093059 11.579250 3.289766 4.738280 -39.523319 -70.100038 -39.520768 -145.141682 -86.221971 144.788083 26.492087 -13.757778 -3.440652 -0.401766 0.911901 0.083787 -0.009269 -0.038697 0.022456 -0.093081 0.103003 0.007608 4.763220 -26.953316 6.753591 48.339428 42.180368 -34.703331 -175.261780 73.036189 -173.173980 -23.511193 18.684462 -4.228987 0.323923 -0.763580 -0.078160 -0.018779 0.044076 -0.036813 -0.024568 0.011695 -0.051980 
1.112442 23.638415 -10.887854 1.456775 0.090793 14.936931 -10.374448 4.869719 3.305783 -8.016201 -0.634037 -19.432128 3.482326 -16.858946 34.056624 1.440448 6.332552 22.325218 3.073447 0.298940 -56.646119 10.724793 -3.785122 9.341992 2.554021 14.849012 -43.571221 -4.863555 -4.271969 31.773500 -1.676229 -6.976160 4.459255 -0.798105 -0.018844 -51.610747 6.543308 -6.379418 -11.114227 -2.233943 -1.412819 -4.501244 -6.737935 0.604061 2.333394 8.821342 -10.920307 -5.112580 -1.896698 -0.357284 0.906983 -0.052998 -0.020160 0.094396 10.822683 4.728300 5.079310 -37.795483 -68.169940 -43.108049 -102.793478 -86.185792 101.671621 26.549142 -13.663115 -3.435204 -0.421042 0.908146 0.081660 -0.005153 -0.035448 0.017577 -0.091373 0.118966 0.016144 5.018000 -25.777745 6.691137 47.946434 42.126009 -34.653604 -177.234920 71.215505 -175.295744 -23.215914 18.768410 -4.195727 0.339477 -0.775225 -0.080019 -0.012453 0.041062 -0.034587 -0.036425 0.008904 -0.046889 
1.082460 23.420308 -10.347319 0.534363 1.031508 14.045401 -10.381402 5.204560 3.593222 -6.916853 -2.356495 -17.486747 2.794219 -19.192653 30.223161 1.110371 6.119923 27.460861 3.291987 0.404889 -57.270392 11.049361 -4.180257 9.256997 4.799241 16.212964 -40.311814 -5.381826 -3.331264 28.177945 -1.546763 -6.192380 6.994407 -0.346581 -0.046277 -51.776957 7.331291 -4.158538 -10.825692 -2.163596 -1.684566 -4.364300 -6.431514 -0.610794 3.406985 9.581545 -11.107461 -6.149955 -1.701150 -0.354013 0.971686 -0.051374 -0.012528 0.097080 9.998604 4.196636 5.616222 -38.646199 -65.628593 -41.944429 -84.593326 -85.016599 83.196660 26.787019 -13.436247 -3.428305 -0.395820 0.981982 0.083925 0.000914 -0.036149 0.013127 -0.084283 0.125245 0.022617 6.420682 -26.481117 6.351520 47.503841 41.999340 -34.527836 -179.231781 69.927082 -176.877423 -23.194509 19.036920 -4.251322 0.355530 -0.787299 -0.080930 -0.002929 0.046340 -0.035728 -0.046084 0.008863 -0.038700 
1.045205 23.007001 -9.814279 -0.035464 1.327333 13.247221 -10.333237 4.764792 4.423907 -5.518494 -1.995985 -16.814114 -0.870285 -19.479298 25.741916 0.541473 5.749298 30.848087 3.227925 0.439320 -57.062438 11.285683 -3.345223 9.640890 6.393399 15.088964 -38.150836 -4.767233 -3.178055 26.062410 -1.230014 -4.529374 8.830939 0.168143 -0.061211 -53.008178 7.301604 -3.492354 -9.475584 -1.270939 -1.610212 -4.629717 -6.783641 -0.299449 4.073933 8.563552 -10.629056 -6.643299 -2.118143 -0.405067 0.919653 -0.050441 -0.010935 0.090771 9.717763 5.001316 6.338229 -41.076852 -62.653255 -38.371606 -107.348276 -84.270347 105.757011 26.261397 -13.718082 -3.443055 -0.386681 1.013514 0.079806 0.002146 -0.036052 0.007433 -0.083826 0.137491 0.018216 8.133243 -25.522021 5.632461 47.804442 40.923467 -31.343209 -177.492409 70.819621 -174.849425 -22.207198 18.927663 -4.063430 0.335711 -0.865414 -0.087185 0.015417 0.049381 -0.041096 -0.056807 0.005498 -0.029777 
1.001141 22.408050 -9.283445 -0.350595 1.532527 13.337669 -10.096854 5.520415 5.674990 -6.661070 -4.787357 -17.631010 -1.538289 -18.344197 20.405840 -0.118791 4.721048 30.260725 3.144763 0.448920 -55.967786 11.814217 -2.955330 9.144125 7.914005 13.835254 -37.130045 -4.581286 -2.974173 21.809192 -1.021329 -5.914707 14.159455 0.392773 -0.016089 -53.803419 7.540936 -1.565631 -8.624474 -2.228273 -1.371610 -4.680875 -5.804789 -0.013590 3.949602 8.495637 -9.976483 -7.010776 -2.394693 -0.426353 0.895036 -0.041998 -0.009561 0.087164 9.047102 5.542718 5.162123 -44.555615 -59.990175 -32.270262 -144.089244 -82.640959 143.106686 26.210885 -14.063448 -3.546301 -0.303389 1.094784 0.075261 0.009822 -0.037123 0.007715 -0.079820 0.143684 0.015935 9.023683 -26.730464 4.962613 49.749775 40.255019 -26.836166 -173.987971 71.350731 -170.769138 -21.642882 19.067109 -3.985381 0.322596 -0.960267 -0.087513 0.024275 0.049724 -0.039979 -0.062411 0.003738 -0.027314 
0.952168 21.622737 -8.762804 0.385399 2.658190 12.344825 -12.496365 4.850345 6.937898 -3.600371 -7.304759 -19.668741 -2.930438 -15.976210 16.308142 0.260050 5.434832 32.730198 2.822448 0.383624 -54.570961 14.242913 -1.299539 7.708991 4.790783 8.970041 -34.652912 -3.863574 -3.356883 19.522474 -0.606285 -10.014955 22.445374 0.456302 0.063228 -56.479064 6.116297 -2.593837 -7.140950 -1.378878 -0.784355 -4.178912 -5.538096 0.157759 3.643343 7.861119 -9.026500 -7.264269 -2.654497 -0.428739 0.861827 -0.032068 -0.008710 0.075524 8.574222 6.883002 4.759104 -50.476050 -56.632499 -22.014552 -160.807016 -77.869607 159.746655 24.216701 -14.499823 -3.381971 -0.337236 0.979339 0.058136 0.011259 -0.037152 0.012424 -0.083141 0.144586 0.004533 10.426069 -24.260104 2.853686 51.513150 36.247839 -20.773067 -175.150761 74.044128 -171.907174 -20.228999 19.472541 -3.783093 0.314149 -0.788332 -0.093709 0.040946 0.042697 -0.037977 -0.063325 0.001273 -0.033722 
